<?xml version="1.0" encoding="UTF-8" standalone="no"?>
<!DOCTYPE svg PUBLIC "-//W3C//DTD SVG 1.1//EN" "http://www.w3.org/Graphics/SVG/1.1/DTD/svg11.dtd">
<!-- Created with Vectornator (http://vectornator.io/) -->
<svg height="100%" stroke-miterlimit="10" style="fill-rule:nonzero;clip-rule:evenodd;stroke-linecap:round;stroke-linejoin:round;" version="1.1" viewBox="0 0 375.42 221.46" width="100%" xml:space="preserve" xmlns="http://www.w3.org/2000/svg" xmlns:vectornator="http://vectornator.io" xmlns:xlink="http://www.w3.org/1999/xlink">
<defs/>
<g id="Untitled" vectornator:layerName="Untitled">
<g opacity="1" vectornator:layerName="g">
<path d="M179.39 4.48C138.57 4.48 105.47 37.56 105.47 78.39C105.47 119.21 138.57 152.31 179.39 152.31C220.2 152.31 253.3 119.21 253.3 78.39C253.3 37.56 220.21 4.48 179.39 4.48ZM226.45 112.01L226.45 112.01C226.45 115.65 223.51 118.59 219.88 118.59C216.26 118.59 213.31 115.65 213.31 112.02L213.32 112.02L213.32 60.36C213.32 56.73 210.37 53.79 206.73 53.79L180.89 53.79C177.27 53.79 174.33 56.74 174.33 60.36L174.33 105.45C174.33 112.71 168.44 118.59 161.18 118.59L145.48 118.59C138.22 118.59 132.33 112.71 132.33 105.45L132.33 47.21C132.33 43.58 135.27 40.64 138.91 40.64C142.54 40.64 145.48 43.58 145.48 47.21L145.48 98.87C145.48 102.5 148.42 105.44 152.06 105.44L154.61 105.44C158.23 105.44 161.19 102.49 161.19 98.87L161.19 53.79C161.19 46.53 167.07 40.65 174.34 40.65L213.32 40.65L213.33 40.65C220.58 40.65 226.47 46.53 226.47 53.79L226.47 112.01L226.45 112.01Z" fill="#000000" fill-rule="nonzero" opacity="1" stroke="none" vectornator:layerName="path"/>
<g opacity="1" vectornator:layerName="g">
<g opacity="1" vectornator:layerName="g">
<path d="M7.47 166.31L14.84 166.31L14.84 166.31L14.84 210.47L14.84 210.47L7.47 210.47L7.47 210.47L7.47 166.31L7.47 166.31Z" fill="#000000" fill-rule="nonzero" opacity="1" stroke="none" vectornator:layerName="rect"/>
<path d="M159.35 165.75C145.66 165.75 134.52 175.84 134.52 188.24C134.52 200.64 145.66 210.73 159.35 210.73C173.04 210.73 184.18 200.64 184.18 188.24C184.18 175.84 173.05 165.75 159.35 165.75ZM159.35 204.31C149.62 204.31 141.7 197.1 141.7 188.24C141.7 179.38 149.62 172.17 159.35 172.17C169.08 172.17 177 179.38 177 188.24C177 197.1 169.09 204.31 159.35 204.31Z" fill="#000000" fill-rule="nonzero" opacity="1" stroke="none" vectornator:layerName="path"/>
<path d="M71.06 166.31L63.69 166.31L63.69 200.12L28.39 167.35C27.69 166.68 26.79 166.32 25.84 166.32C23.81 166.32 22.15 167.97 22.15 170.01L22.15 210.48L29.53 210.48L29.53 176.64L64.7 209.32C65.43 210.08 66.37 210.48 67.38 210.48C69.41 210.48 71.06 208.82 71.06 206.79L71.06 166.31Z" fill="#000000" fill-rule="nonzero" opacity="1" stroke="none" vectornator:layerName="path"/>
<path d="M127.14 166.31L119.77 166.31L119.77 184.7L85.83 184.7L85.83 170C85.83 167.97 84.18 166.31 82.14 166.31C80.11 166.31 78.45 167.96 78.45 170L78.45 210.47L85.83 210.47L85.83 192.08L119.77 192.08L119.77 206.79C119.77 208.82 121.42 210.48 123.46 210.48C125.49 210.48 127.15 208.82 127.15 206.79L127.15 166.31L127.14 166.31Z" fill="#000000" fill-rule="nonzero" opacity="1" stroke="none" vectornator:layerName="path"/>
<path d="M348.69 184.7L311.06 184.7L311.06 173.69L348.69 173.69C350.72 173.69 352.37 172.04 352.37 170.01C352.37 167.97 350.72 166.32 348.69 166.32L311.56 166.33C307.27 166.38 303.73 169.91 303.68 174.21L303.68 174.58L303.69 202.73C303.81 206.87 307.14 210.26 311.28 210.45L311.65 210.47L348.68 210.47C350.71 210.47 352.36 208.81 352.36 206.78C352.36 204.74 350.71 203.09 348.68 203.09L311.05 203.09L311.05 192.07L348.68 192.07C350.71 192.07 352.36 190.42 352.36 188.38C352.38 186.35 350.73 184.7 348.69 184.7Z" fill="#000000" fill-rule="nonzero" opacity="1" stroke="none" vectornator:layerName="path"/>
<path d="M240.25 166.31L232.88 166.31L232.88 199.06L232.88 199.06C232.55 201.35 230.54 203.09 228.18 203.09L203.63 203.09C201.27 203.09 199.27 201.36 198.95 199.06L198.95 199.06L198.93 198.55L198.93 166.3L191.56 166.3L191.56 202.58C191.56 206.93 195.09 210.46 199.44 210.46L232.38 210.46C236.72 210.46 240.26 206.93 240.26 202.58L240.26 166.31L240.25 166.31Z" fill="#000000" fill-rule="nonzero" opacity="1" stroke="none" vectornator:layerName="path"/>
<path d="M296.31 192.58C296.31 188.24 292.78 184.7 288.43 184.7L255 184.7L255 173.68L292.79 173.68C294.74 173.59 296.31 171.97 296.31 170C296.31 167.97 294.66 166.31 292.62 166.31L255.5 166.31C251.16 166.31 247.62 169.84 247.62 174.19L247.62 184.2C247.62 188.55 251.15 192.08 255.5 192.08L288.93 192.08L288.93 203.1L251.31 203.1C249.28 203.1 247.63 204.75 247.63 206.79C247.63 208.83 249.29 210.48 251.31 210.48L288.44 210.48C292.78 210.48 296.32 206.95 296.32 202.6L296.32 192.58L296.31 192.58Z" fill="#000000" fill-rule="nonzero" opacity="1" stroke="none" vectornator:layerName="path"/>
</g>
<g opacity="1" vectornator:layerName="g">
<path d="M361.61 168.71L361.61 161.17L363.54 161.17C364.34 161.17 364.96 161.36 365.42 161.75C365.88 162.12 366.11 162.64 366.11 163.27C366.11 163.72 366.01 164.08 365.77 164.41C365.55 164.73 365.22 164.97 364.8 165.13C365.06 165.28 365.3 165.5 365.55 165.77C365.78 166.04 366.12 166.52 366.54 167.19C366.81 167.62 367.03 167.95 367.19 168.16L367.62 168.7L366.29 168.7L365.95 168.21C365.95 168.2 365.91 168.15 365.88 168.11L365.66 167.82L365.31 167.28L364.95 166.69C364.73 166.38 364.5 166.13 364.31 165.95C364.13 165.76 363.94 165.63 363.79 165.55C363.64 165.47 363.39 165.43 363.02 165.43L362.74 165.43L362.74 168.71L361.61 168.71ZM363.05 162.09L362.72 162.09L362.72 164.48L363.15 164.48C363.71 164.48 364.09 164.43 364.3 164.34C364.5 164.24 364.69 164.11 364.8 163.91C364.91 163.73 364.98 163.51 364.98 163.27C364.98 163.04 364.91 162.83 364.78 162.63C364.65 162.44 364.47 162.3 364.24 162.22C363.98 162.14 363.59 162.09 363.05 162.09Z" fill="#000000" fill-rule="nonzero" opacity="1" stroke="none" vectornator:layerName="path"/>
<path d="M363.84 158.5C360.21 158.5 357.28 161.36 357.28 164.88C357.28 168.4 360.21 171.25 363.84 171.25C367.47 171.25 370.43 168.4 370.43 164.88C370.43 161.36 367.47 158.5 363.84 158.5ZM363.84 170.62C360.58 170.62 357.94 168.05 357.94 164.89C357.94 161.72 360.58 159.15 363.84 159.15C367.1 159.15 369.75 161.72 369.75 164.89C369.75 168.05 367.1 170.62 363.84 170.62Z" fill="#000000" fill-rule="nonzero" opacity="1" stroke="none" vectornator:layerName="path"/>
</g>
</g>
</g>
</g>
</svg>
