<?xml version="1.0" standalone="no"?>
<!DOCTYPE svg PUBLIC "-//W3C//DTD SVG 20010904//EN"
 "http://www.w3.org/TR/2001/REC-SVG-20010904/DTD/svg10.dtd">
<svg version="1.0" xmlns="http://www.w3.org/2000/svg"
 width="660.000000pt" height="320.000000pt" viewBox="0 0 660.000000 320.000000"
 preserveAspectRatio="xMidYMid meet">

<g transform="translate(0.000000,320.000000) scale(0.100000,-0.100000)"
fill="#000000" stroke="none">
<path d="M2990 2068 c0 -374 1 -395 21 -438 27 -60 64 -98 124 -126 143 -68
312 11 355 164 6 22 10 188 10 415 l0 377 -30 0 -30 0 0 -184 0 -184 -36 -12
c-19 -7 -51 -9 -69 -6 l-34 7 29 42 c37 52 52 125 39 190 -22 119 -69 147
-252 147 l-127 0 0 -392z m265 320 c21 -9 55 -53 55 -70 0 -2 -30 -3 -68 -4
-67 0 -130 -23 -174 -62 -17 -14 -18 -10 -18 66 l0 82 90 0 c49 0 101 -5 115
-12z m29 -144 c9 -8 16 -28 16 -44 0 -36 -24 -60 -60 -60 -36 0 -60 24 -60 60
0 36 24 60 60 60 16 0 36 -7 44 -16z m-150 -89 c37 -91 153 -155 257 -141 l49
7 0 -148 c0 -81 -5 -166 -11 -188 -26 -94 -107 -151 -205 -143 -58 5 -106 34
-146 90 -22 32 -23 38 -23 268 0 230 1 236 23 268 13 17 26 32 30 32 4 0 15
-20 26 -45z"/>
<path d="M3770 1003 c-98 -51 -105 -180 -14 -239 37 -25 116 -24 152 2 59 44
77 123 42 181 -39 65 -117 89 -180 56z m128 -59 c26 -29 30 -89 7 -120 -52
-75 -165 -37 -165 56 0 90 100 130 158 64z"/>
<path d="M4618 1004 c-56 -30 -45 -94 19 -114 78 -25 104 -60 68 -90 -18 -15
-86 -15 -114 0 -19 9 -21 8 -21 -14 0 -52 127 -60 176 -11 49 50 24 113 -56
140 -57 19 -67 29 -49 52 10 11 24 14 56 9 37 -5 43 -3 43 13 0 32 -74 41
-122 15z"/>
<path d="M620 911 c0 -92 2 -102 25 -129 45 -53 154 -49 184 6 6 12 11 66 11
121 0 101 0 101 -25 101 -24 0 -24 -1 -27 -102 -3 -101 -3 -103 -30 -116 -23
-11 -33 -11 -55 0 -28 13 -28 15 -31 116 -3 101 -3 102 -27 102 -25 0 -25 0
-25 -99z"/>
<path d="M980 880 l0 -130 25 0 c25 0 25 1 25 93 l0 92 61 -92 c49 -74 67 -93
85 -93 24 0 24 0 24 130 0 123 -1 130 -20 130 -17 0 -20 -8 -22 -91 l-3 -91
-63 91 c-50 73 -68 91 -87 91 l-25 0 0 -130z"/>
<path d="M1350 880 c0 -123 1 -130 20 -130 19 0 20 7 20 130 0 123 -1 130 -20
130 -19 0 -20 -7 -20 -130z"/>
<path d="M1520 996 c0 -10 13 -16 38 -18 l37 -3 3 -112 c2 -104 4 -113 22
-113 18 0 20 9 22 113 l3 112 38 3 c24 2 37 8 37 18 0 11 -20 14 -100 14 -80
0 -100 -3 -100 -14z"/>
<path d="M1850 880 l0 -130 90 0 c73 0 90 3 90 15 0 12 -14 15 -70 15 l-70 0
0 50 0 50 70 0 c56 0 70 3 70 15 0 12 -14 15 -70 15 l-70 0 0 35 0 35 70 0
c56 0 70 3 70 15 0 12 -17 15 -90 15 l-90 0 0 -130z"/>
<path d="M2170 880 l0 -130 70 0 c110 0 160 39 160 125 0 92 -51 135 -159 135
l-71 0 0 -130z m157 65 c30 -34 31 -93 2 -129 -17 -22 -28 -26 -70 -26 l-49 0
0 88 c0 49 3 92 8 96 15 16 87 -3 109 -29z"/>
<path d="M2751 988 c-5 -13 -25 -63 -44 -113 -19 -49 -38 -98 -42 -107 -6 -14
-2 -18 17 -18 19 0 27 9 41 51 l18 50 46 -3 c44 -3 46 -5 63 -48 13 -32 24
-46 40 -48 18 -3 22 0 16 15 -3 10 -25 69 -49 130 -40 106 -44 113 -70 113
-19 0 -30 -7 -36 -22z m59 -90 c0 -13 -8 -18 -25 -18 -28 0 -30 6 -14 47 10
27 11 27 25 9 8 -11 14 -28 14 -38z"/>
<path d="M3030 880 l0 -130 25 0 c24 0 25 3 25 60 0 56 1 60 23 60 28 0 47
-19 76 -77 17 -34 27 -43 47 -43 l25 0 -32 58 c-17 31 -35 61 -39 65 -4 5 4
20 17 33 19 19 23 31 18 52 -10 42 -32 52 -112 52 l-73 0 0 -130z m130 85 c6
-8 9 -23 5 -35 -5 -16 -15 -20 -46 -20 -38 0 -39 1 -39 35 0 33 2 35 34 35 18
0 39 -7 46 -15z"/>
<path d="M3380 880 l0 -130 25 0 c24 0 25 3 25 61 0 60 0 60 28 57 22 -2 33
-14 57 -60 25 -49 34 -58 57 -58 l27 0 -26 48 c-15 26 -33 55 -41 65 -14 16
-13 19 6 38 27 24 29 70 4 92 -14 13 -38 17 -90 17 l-72 0 0 -130z m118 91 c8
-4 12 -19 10 -32 -2 -20 -10 -25 -40 -27 -37 -3 -38 -3 -38 32 0 33 3 36 28
36 15 0 33 -4 40 -9z"/>
<path d="M4076 988 c3 -12 23 -69 44 -127 33 -92 41 -106 62 -109 22 -3 26 4
51 88 15 49 29 90 32 90 3 0 17 -41 32 -90 25 -85 28 -91 52 -88 22 3 29 16
67 123 24 66 43 123 43 128 1 4 -9 7 -22 7 -20 0 -27 -11 -52 -90 -16 -49 -32
-90 -35 -90 -4 0 -19 41 -33 90 -25 82 -30 90 -52 90 -22 0 -27 -8 -52 -90
-15 -50 -30 -87 -34 -83 -3 5 -19 45 -34 91 -24 73 -29 82 -51 82 -21 0 -24
-3 -18 -22z"/>
<path d="M5060 880 l0 -130 85 0 c69 0 85 3 85 15 0 12 -13 15 -60 15 l-60 0
0 115 0 115 -25 0 -25 0 0 -130z"/>
<path d="M5300 995 c0 -11 11 -15 40 -15 l40 0 0 -115 0 -115 25 0 25 0 0 115
0 115 40 0 c29 0 40 4 40 15 0 12 -18 15 -105 15 -87 0 -105 -3 -105 -15z"/>
<path d="M5620 879 l0 -131 84 3 c73 4 88 7 110 28 59 55 56 154 -5 205 -27
23 -39 26 -110 26 l-79 0 0 -131z m162 71 c58 -71 21 -160 -67 -160 l-45 0 0
96 0 97 47 -6 c32 -3 53 -12 65 -27z"/>
<path d="M5931 781 c-16 -28 14 -51 36 -28 13 13 14 19 3 31 -17 21 -27 20
-39 -3z"/>
</g>
</svg>
