<svg xmlns="http://www.w3.org/2000/svg" version="1.1" xmlns:xlink="http://www.w3.org/1999/xlink"
  xmlns:svgjs="http://svgjs.com/svgjs" width="512" height="512" x="0" y="0" viewBox="0 0 64 64"
  style="enable-background:new 0 0 512 512" xml:space="preserve" class="">
  <g>
    <path fill="var(--theme)" fill-rule="evenodd"
      d="M18 2C9.163 2 2 9.163 2 18v28c0 8.837 7.163 16 16 16h28c8.837 0 16-7.163 16-16V18c0-8.837-7.163-16-16-16zm10 30a2 2 0 0 1-.662 1.487l-10 9a2 2 0 1 1-2.676-2.974L23.01 32l-8.348-7.513a2 2 0 0 1 2.676-2.974l10 9A2 2 0 0 1 28 32zm20 11a2 2 0 1 0 0-4H32a2 2 0 1 0 0 4z"
      clip-rule="evenodd" data-original="#000000" class=""></path>
  </g>
</svg>