<svg xmlns="http://www.w3.org/2000/svg" version="1.1" xmlns:xlink="http://www.w3.org/1999/xlink" xmlns:svgjs="http://svgjs.com/svgjs" width="512" height="512" x="0" y="0" viewBox="0 0 682.667 682.667" style="enable-background:new 0 0 512 512" xml:space="preserve" class=""><g><defs><clipPath id="a" clipPathUnits="userSpaceOnUse"><path d="M0 512h512V0H0Z" fill="#000000" data-original="#000000"></path></clipPath></defs><g clip-path="url(#a)" transform="matrix(1.33333 0 0 -1.33333 0 682.667)"><path d="M0 0h-113.999v-120.453h306.001v68.452c0 11 9 20 20 20h33.999V103.61H20V20C20 9 11.001 0 0 0" style="fill-opacity:1;fill-rule:evenodd;stroke:none" transform="translate(189.998 242.002)" fill="#b2f0fb" data-original="#b2f0fb"></path><path d="M0 0h-323.114c-9.837 0-17.887 8.048-17.887 17.886v137.567m178.999 148.61H81.113c9.838 0 17.886-8.048 17.886-17.884V133.452" style="stroke-width:20;stroke-linecap:round;stroke-linejoin:round;stroke-miterlimit:22.926;stroke-dasharray:none;stroke-opacity:1" transform="translate(377 81.549)" fill="none" stroke="#d9d9ef" stroke-width="20" stroke-linecap="round" stroke-linejoin="round" stroke-miterlimit="22.926" stroke-dasharray="none" stroke-opacity="" data-original="#020288" class=""></path><path d="M0 0h143.088" style="stroke-width:20;stroke-linecap:round;stroke-linejoin:round;stroke-miterlimit:22.926;stroke-dasharray:none;stroke-opacity:1" transform="translate(184.455 10.001)" fill="none" stroke="#d9d9ef" stroke-width="20" stroke-linecap="round" stroke-linejoin="round" stroke-miterlimit="22.926" stroke-dasharray="none" stroke-opacity="" data-original="#020288" class=""></path><path d="m0 0 19.032 71.03" style="stroke-width:20;stroke-linecap:round;stroke-linejoin:round;stroke-miterlimit:22.926;stroke-dasharray:none;stroke-opacity:1" transform="translate(202.411 10.26)" fill="none" stroke="#d9d9ef" stroke-width="20" stroke-linecap="round" stroke-linejoin="round" stroke-miterlimit="22.926" stroke-dasharray="none" stroke-opacity="" data-original="#020288" class=""></path><path d="m0 0-19.033 71.03" style="stroke-width:20;stroke-linecap:round;stroke-linejoin:round;stroke-miterlimit:22.926;stroke-dasharray:none;stroke-opacity:1" transform="translate(309.588 10.26)" fill="none" stroke="#d9d9ef" stroke-width="20" stroke-linecap="round" stroke-linejoin="round" stroke-miterlimit="22.926" stroke-dasharray="none" stroke-opacity="" data-original="#020288" class=""></path><path d="M0 0h80c11 0 20-9 20-20v-160.001C100-191 91-200 80-200H0c-11 0-20 9-20 19.999V-20C-20-9-11 0 0 0z" style="stroke-width:20;stroke-linecap:round;stroke-linejoin:round;stroke-miterlimit:22.926;stroke-dasharray:none;stroke-opacity:1" transform="translate(402 210.001)" fill="none" stroke="#d9d9ef" stroke-width="20" stroke-linecap="round" stroke-linejoin="round" stroke-miterlimit="22.926" stroke-dasharray="none" stroke-opacity="" data-original="#020288" class=""></path><path d="M0 0h159.999c11.001 0 20-9 20-20v-220.001c0-11-8.999-20-20-20H0c-11.001 0-20.001 9-20.001 20V-20c0 11 9 20 20.001 20z" style="stroke-width:20;stroke-linecap:round;stroke-linejoin:round;stroke-miterlimit:22.926;stroke-dasharray:none;stroke-opacity:1" transform="translate(29.999 502.003)" fill="none" stroke="#d9d9ef" stroke-width="20" stroke-linecap="round" stroke-linejoin="round" stroke-miterlimit="22.926" stroke-dasharray="none" stroke-opacity="" data-original="#020288" class=""></path><path d="M0 0h108.85" style="stroke-width:20;stroke-linecap:round;stroke-linejoin:round;stroke-miterlimit:22.926;stroke-dasharray:none;stroke-opacity:1" transform="translate(387.575 50.001)" fill="none" stroke="#d9d9ef" stroke-width="20" stroke-linecap="round" stroke-linejoin="round" stroke-miterlimit="22.926" stroke-dasharray="none" stroke-opacity="" data-original="#020288" class=""></path><path d="M0 0h108.85" style="stroke-width:20;stroke-linecap:round;stroke-linejoin:round;stroke-miterlimit:22.926;stroke-dasharray:none;stroke-opacity:1" transform="translate(387.575 170.001)" fill="none" stroke="#d9d9ef" stroke-width="20" stroke-linecap="round" stroke-linejoin="round" stroke-miterlimit="22.926" stroke-dasharray="none" stroke-opacity="" data-original="#020288" class=""></path><path d="M0 0h188.347" style="stroke-width:20;stroke-linecap:round;stroke-linejoin:round;stroke-miterlimit:22.926;stroke-dasharray:none;stroke-opacity:1" transform="translate(15.825 462.003)" fill="none" stroke="#d9d9ef" stroke-width="20" stroke-linecap="round" stroke-linejoin="round" stroke-miterlimit="22.926" stroke-dasharray="none" stroke-opacity="" data-original="#020288" class=""></path><path d="M0 0h188.347" style="stroke-width:20;stroke-linecap:round;stroke-linejoin:round;stroke-miterlimit:22.926;stroke-dasharray:none;stroke-opacity:1" transform="translate(15.825 282.002)" fill="none" stroke="#d9d9ef" stroke-width="20" stroke-linecap="round" stroke-linejoin="round" stroke-miterlimit="22.926" stroke-dasharray="none" stroke-opacity="" data-original="#020288" class=""></path></g></g></svg>