<svg xmlns="http://www.w3.org/2000/svg" version="1.1" xmlns:xlink="http://www.w3.org/1999/xlink"
  xmlns:svgjs="http://svgjs.com/svgjs" width="512" height="512" x="0" y="0" viewBox="0 0 511.227 511.227"
  style="enable-background:new 0 0 512 512" xml:space="preserve" class="">
  <g>
    <path fill="#d9d9ef"
      d="M447.19 243.077c-3.452-32.448-24.577-59.696-53.537-71.903V90.811l20.414-20.413c22.665 12.725 52.003-4.647 51.641-30.785 0-19.298-15.7-34.999-34.999-34.999-26.136-.358-43.512 28.975-30.784 51.641l-23.342 23.342a10.001 10.001 0 0 0-2.929 7.071v78.761c-11.162-1.824-23.052-1.438-34.088 1.138-20.065-22.699-45.603-39.123-73.857-47.963V73.159c38.101-12.076 30.438-67.688-10-68.544-40.445.86-48.095 56.475-10 68.544v40.548c-36.532-6.686-75.652-.302-107.945 17.522v-44.56c0-2.652-1.054-5.196-2.929-7.071l-23.342-23.342c12.725-22.665-4.647-52.002-30.785-51.641-19.298 0-35 15.7-35 34.999-.358 26.135 28.976 43.512 51.642 30.784l20.413 20.413v53.318c-32.634 24.509-55.203 60.876-62.637 100.726-83.225 24.002-68.339 143.325 18.606 145.659h69.63c5.523 0 10-4.477 10-10s-4.477-10-10-10h-69.63c-66.349-1.794-73.534-95.211-8.316-107.4a10 10 0 0 0 8.353-8.457C90.706 132.02 250.777 87.181 328.311 184.209a10.004 10.004 0 0 0 10.745 3.212 68.119 68.119 0 0 1 20.457-3.124c37.59 0 68.173 30.582 68.173 68.173 0 5.523 4.477 10 10 10 29.788 0 54.021 24.234 54.021 54.022s-24.234 54.022-54.022 54.022h-74.131c-5.523 0-10 4.477-10 10s4.477 10 10 10h74.131c92.278-2.641 100.249-133.24 9.505-147.437zM430.708 24.614c8.271 0 15 6.729 15 15-.754 19.872-29.248 19.867-30 0 0-8.271 6.729-15 15-15zm-190 15c0-8.271 6.729-15 15-15 19.872.754 19.866 29.249 0 30-8.271 0-15-6.729-15-15zm-175 0c0-8.271 6.729-15 15-15 19.872.754 19.867 29.248 0 30-8.271 0-15-6.729-15-15z"
      data-original="#020288" class=""></path>
    <path fill="#b2f0fb" fill-rule="evenodd"
      d="M255.708 506.616c66.094 0 120-53.906 120-120-6.138-158.958-233.886-158.914-240 .002 0 66.092 53.906 119.998 120 119.998z"
      clip-rule="evenodd" data-original="#b2f0fb" class=""></path>
    <path fill="#020288"
      d="M255.708 468.707c-57.728-11.916-71.155-65.112-69.999-114.182-.001-5.523 4.476-10 9.999-10 11.028 0 20-8.972 20-20 0-5.523 4.477-10 10-10h60c5.523 0 10 4.477 10 10 0 11.028 8.972 20 20 20 5.523 0 10 4.477 10 10 1.158 49.067-12.284 102.281-70 114.182zm-49.893-105.475c1.094 42.778 11.067 73.5 49.893 85.083 38.826-11.583 48.799-42.306 49.894-85.083-13.986-3.654-25.011-14.706-28.628-28.707h-42.531c-3.617 13.999-14.644 25.052-28.628 28.707z"
      data-original="#020288" class=""></path>
  </g>
</svg>