<svg xmlns="http://www.w3.org/2000/svg" version="1.1" xmlns:xlink="http://www.w3.org/1999/xlink"
  xmlns:svgjs="http://svgjs.com/svgjs" width="512" height="512" x="0" y="0" viewBox="0 0 512.001 512.001"
  style="enable-background:new 0 0 512 512" xml:space="preserve" class="">
  <g>
    <g fill="#020288">
      <path
        d="M482.001.078H29.999C13.457.078 0 13.536 0 30.078v340c0 16.542 13.457 30 29.999 30h180.123c5.522 0 10-4.477 10-10s-4.478-10-10-10H29.999c-5.514 0-9.999-4.486-9.999-10v-270h110c24.146 0 44.349-17.206 48.994-40h313.007v310c0 5.514-4.486 10-10 10H301.879c-5.522 0-10 4.477-10 10s4.478 10 10 10h180.122c16.542 0 30-13.458 30-30v-340c0-16.542-13.458-30-30-30zm-312.002 40c-5.522 0-10 4.477-10 10 0 16.542-13.458 30-29.999 30H20v-50c0-5.514 4.485-10 9.999-10h452.002c5.514 0 10 4.486 10 10v10z"
        fill="#d9d9ef" data-original="#020288" class=""></path>
      <path
        d="M130.003 40.078c-5.525-.004-10.004 4.475-10.004 10 .491 13.247 19.515 13.25 20.004 0 0-5.523-4.478-10-10-10zM90.002 40.078c-5.525-.005-10.004 4.474-10.004 10 .491 13.247 19.515 13.25 20.004 0 0-5.523-4.478-10-10-10zM50 40.078c-5.525-.004-10.004 4.475-10.004 10 .491 13.247 19.515 13.25 20.004 0 0-5.523-4.478-10-10-10zM364.937 467.08h-75.392c-3.366-11.272-12.272-20.178-23.545-23.545v-40.587c0-5.523-4.478-10-10-10s-10 4.477-10 10v40.587c-11.272 3.366-20.178 12.272-23.544 23.545h-75.39c-5.522 0-10 4.477-10 10s4.478 10 10 10h75.39c10.113 33.134 56.988 33.112 67.088 0h75.392c5.522 0 10-4.477 10-10s-4.477-10-9.999-10zM256 492.08c-8.271 0-14.999-6.729-14.999-15 .754-19.873 29.248-19.866 29.999 0 0 8.271-6.729 15-15 15z"
        fill="#d9d9ef" data-original="#020288" class=""></path>
    </g>
    <path fill="#a4fbc4" fill-rule="evenodd"
      d="M256 410.078c82.617 0 150-67.383 150-150-7.673-198.697-292.357-198.642-300 .002.001 82.615 67.383 149.998 150 149.998z"
      clip-rule="evenodd" data-original="#a4fbc4"></path>
    <g fill="#020288">
      <path
        d="M281.25 216.345a9.998 9.998 0 0 0-13.66 3.66l-40.499 70.146c-2.762 4.783-1.123 10.899 3.66 13.66 4.698 2.737 10.884 1.166 13.66-3.66l40.499-70.146c2.762-4.783 1.123-10.899-3.66-13.66zM204.077 217.934c-3.906-3.905-10.236-3.905-14.143 0l-35.073 35.073c-3.905 3.905-3.905 10.237 0 14.143l35.073 35.073a9.968 9.968 0 0 0 7.071 2.929c8.701.143 13.398-10.916 7.071-17.071l-28.002-28.002 28.002-28.002c3.906-3.906 3.906-10.238.001-14.143zM357.14 253.007l-35.073-35.073c-3.906-3.905-10.236-3.905-14.143 0-3.905 3.905-3.905 10.237 0 14.143l28.002 28.002-28.002 28.002c-9.034 9.678 4.456 23.181 14.143 14.142l35.073-35.073c3.905-3.906 3.905-10.238 0-14.143z"
        fill="#020288" data-original="#020288" class=""></path>
    </g>
  </g>
</svg>